<svg width="320" height="460" viewBox="0 0 320 460" fill="none" xmlns="http://www.w3.org/2000/svg">
<rect width="320" height="460" fill="#C0C0C0"/>
<path d="M248 73H72C68.287 73 64.726 74.475 62.1005 77.1005C59.475 79.726 58 83.287 58 87V231C58 234.713 59.475 238.274 62.1005 240.899C64.726 243.525 68.287 245 72 245H248C251.713 245 255.274 243.525 257.899 240.899C260.525 238.274 262 234.713 262 231V87C262 83.287 260.525 79.726 257.899 77.1005C255.274 74.475 251.713 73 248 73ZM72 85H248C248.53 85 249.039 85.2107 249.414 85.5858C249.789 85.9609 250 86.4696 250 87V194.57L220.53 165.1C219.23 163.8 217.687 162.768 215.988 162.065C214.289 161.361 212.469 160.999 210.63 160.999C208.791 160.999 206.971 161.361 205.272 162.065C203.573 162.768 202.03 163.8 200.73 165.1L179.31 186.52L133.9 141.1C132.6 139.8 131.057 138.768 129.358 138.065C127.659 137.361 125.839 136.999 124 136.999C122.161 136.999 120.341 137.361 118.642 138.065C116.943 138.768 115.4 139.8 114.1 141.1L70 185.2V87C70 86.4696 70.2107 85.9609 70.5858 85.5858C70.9609 85.2107 71.4696 85 72 85ZM70 231V202.17L122.58 149.59C122.766 149.403 122.987 149.254 123.231 149.152C123.475 149.051 123.736 148.998 124 148.998C124.264 148.998 124.525 149.051 124.769 149.152C125.013 149.254 125.234 149.403 125.42 149.59L208.83 233H72C71.4696 233 70.9609 232.789 70.5858 232.414C70.2107 232.039 70 231.53 70 231ZM248 233H225.8L187.8 195L209.21 173.58C209.396 173.394 209.616 173.247 209.859 173.146C210.102 173.045 210.362 172.993 210.625 172.993C210.888 172.993 211.148 173.045 211.391 173.146C211.634 173.247 211.854 173.394 212.04 173.58L250.04 211.58V231C250.04 231.266 249.987 231.529 249.884 231.775C249.781 232.02 249.63 232.242 249.44 232.429C249.25 232.615 249.025 232.761 248.778 232.859C248.53 232.958 248.266 233.005 248 233ZM178 131C178 129.022 178.586 127.089 179.685 125.444C180.784 123.8 182.346 122.518 184.173 121.761C186 121.004 188.011 120.806 189.951 121.192C191.891 121.578 193.673 122.53 195.071 123.929C196.47 125.327 197.422 127.109 197.808 129.049C198.194 130.989 197.996 133 197.239 134.827C196.482 136.654 195.2 138.216 193.556 139.315C191.911 140.414 189.978 141 188 141C185.348 141 182.804 139.946 180.929 138.071C179.054 136.196 178 133.652 178 131Z" fill="white"/>
<path d="M72.2244 284.091V319H66.5994L50.1506 295.222H49.8608V319H43.5369V284.091H49.196L65.6278 307.886H65.9347V284.091H72.2244ZM110.308 301.545C110.308 305.307 109.604 308.528 108.195 311.21C106.797 313.881 104.888 315.926 102.467 317.347C100.058 318.767 97.3253 319.477 94.2685 319.477C91.2116 319.477 88.473 318.767 86.0526 317.347C83.6435 315.915 81.7344 313.864 80.3253 311.193C78.9276 308.511 78.2287 305.295 78.2287 301.545C78.2287 297.784 78.9276 294.568 80.3253 291.898C81.7344 289.216 83.6435 287.165 86.0526 285.744C88.473 284.324 91.2116 283.614 94.2685 283.614C97.3253 283.614 100.058 284.324 102.467 285.744C104.888 287.165 106.797 289.216 108.195 291.898C109.604 294.568 110.308 297.784 110.308 301.545ZM103.95 301.545C103.95 298.898 103.536 296.665 102.706 294.847C101.888 293.017 100.751 291.636 99.2969 290.705C97.8423 289.761 96.1662 289.29 94.2685 289.29C92.3707 289.29 90.6946 289.761 89.2401 290.705C87.7855 291.636 86.6435 293.017 85.8139 294.847C84.9957 296.665 84.5866 298.898 84.5866 301.545C84.5866 304.193 84.9957 306.432 85.8139 308.261C86.6435 310.08 87.7855 311.46 89.2401 312.403C90.6946 313.335 92.3707 313.801 94.2685 313.801C96.1662 313.801 97.8423 313.335 99.2969 312.403C100.751 311.46 101.888 310.08 102.706 308.261C103.536 306.432 103.95 304.193 103.95 301.545ZM134.517 284.091V319H128.193V284.091H134.517ZM141.365 284.091H149.104L159.467 309.386H159.876L170.24 284.091H177.979V319H171.911V295.017H171.587L161.939 318.898H157.405L147.757 294.966H147.433V319H141.365V284.091ZM189.348 319H182.598L194.888 284.091H202.695L215.001 319H208.251L198.928 291.25H198.655L189.348 319ZM189.57 305.312H207.979V310.392H189.57V305.312ZM241.345 295.239C241.061 294.318 240.669 293.494 240.169 292.767C239.68 292.028 239.089 291.398 238.396 290.875C237.714 290.352 236.93 289.96 236.044 289.699C235.158 289.426 234.192 289.29 233.146 289.29C231.271 289.29 229.601 289.761 228.135 290.705C226.669 291.648 225.516 293.034 224.675 294.864C223.845 296.682 223.43 298.898 223.43 301.511C223.43 304.148 223.845 306.381 224.675 308.21C225.504 310.04 226.658 311.432 228.135 312.386C229.612 313.33 231.328 313.801 233.283 313.801C235.055 313.801 236.589 313.46 237.885 312.778C239.192 312.097 240.197 311.131 240.902 309.881C241.607 308.619 241.959 307.142 241.959 305.449L243.391 305.67H233.913V300.727H248.078V304.92C248.078 307.909 247.442 310.494 246.169 312.676C244.896 314.858 243.146 316.54 240.919 317.722C238.692 318.892 236.135 319.477 233.249 319.477C230.033 319.477 227.209 318.756 224.777 317.312C222.357 315.858 220.464 313.795 219.101 311.125C217.749 308.443 217.072 305.261 217.072 301.58C217.072 298.761 217.47 296.244 218.266 294.028C219.072 291.812 220.197 289.932 221.641 288.386C223.084 286.83 224.777 285.648 226.72 284.841C228.663 284.023 230.777 283.614 233.061 283.614C234.993 283.614 236.794 283.898 238.464 284.466C240.135 285.023 241.618 285.818 242.913 286.852C244.22 287.886 245.294 289.114 246.135 290.534C246.976 291.955 247.527 293.523 247.788 295.239H241.345ZM254.193 319V284.091H276.898V289.392H260.517V298.869H275.722V304.17H260.517V313.699H277.034V319H254.193Z" fill="white"/>
</svg>
